<?xml version="1.0" standalone="yes"?>

<svg version="1.1" viewBox="0.0 0.0 960.0 720.0" fill="none" stroke="none" stroke-linecap="square" stroke-miterlimit="10" xmlns="http://www.w3.org/2000/svg" xmlns:xlink="http://www.w3.org/1999/xlink"><clipPath id="p.0"><path d="m0 0l960.0 0l0 720.0l-960.0 0l0 -720.0z" clip-rule="nonzero"></path></clipPath><g clip-path="url(#p.0)"><path fill="#000000" d="m0 0l960.0 0l0 720.0l-960.0 0z" fill-rule="nonzero"></path><path stroke="#ffffff" stroke-width="4.0" stroke-linecap="butt" d="m349.67453 167.61285l0 384.7743" fill-rule="nonzero"></path><path stroke="#ffffff" stroke-width="4.0" stroke-linecap="butt" d="m536.26245 167.61285l0 384.7743" fill-rule="nonzero"></path><path stroke="#ffffff" stroke-width="4.0" stroke-linecap="butt" d="m347.67453 169.61285l190.58792 0" fill-rule="nonzero"></path><path stroke="#ffffff" stroke-width="4.0" stroke-linecap="butt" d="m347.67453 224.00919l190.58792 0" fill-rule="nonzero"></path><path stroke="#ffffff" stroke-width="4.0" stroke-linecap="butt" d="m347.67453 278.40552l190.58792 0" fill-rule="nonzero"></path><path stroke="#ffffff" stroke-width="4.0" stroke-linecap="butt" d="m347.67453 332.80185l190.58792 0" fill-rule="nonzero"></path><path stroke="#ffffff" stroke-width="4.0" stroke-linecap="butt" d="m347.67453 387.19815l190.58792 0" fill-rule="nonzero"></path><path stroke="#ffffff" stroke-width="4.0" stroke-linecap="butt" d="m347.67453 441.59448l190.58792 0" fill-rule="nonzero"></path><path stroke="#ffffff" stroke-width="4.0" stroke-linecap="butt" d="m347.67453 495.9908l190.58792 0" fill-rule="nonzero"></path><path fill="#ffffff" d="m374.12766 199.28848q0 1.640625 -0.40625 3.0625q-0.390625 1.421875 -1.15625 2.46875q-0.765625 1.046875 -1.890625 1.640625q-1.125 0.59375 -2.578125 0.59375q-1.484375 0 -2.5625 -0.515625q-1.078125 -0.53125 -1.84375 -1.5l-0.125 1.734375l-2.40625 0l0 -21.75l2.609375 0l0 8.078125q0.75 -0.9375 1.8125 -1.4375q1.0625 -0.5 2.484375 -0.5q1.46875 0 2.59375 0.59375q1.140625 0.578125 1.90625 1.609375q0.765625 1.03125 1.15625 2.46875q0.40625 1.4375 0.40625 3.15625l0 0.296875zm-2.625 -0.296875q0 -1.125 -0.21875 -2.140625q-0.21875 -1.015625 -0.703125 -1.78125q-0.484375 -0.765625 -1.265625 -1.21875q-0.765625 -0.453125 -1.90625 -0.453125q-0.671875 0 -1.25 0.171875q-0.5625 0.171875 -1.015625 0.5q-0.4375 0.3125 -0.78125 0.75q-0.34375 0.421875 -0.59375 0.9375l0 6.703125q0.265625 0.5 0.609375 0.9375q0.34375 0.421875 0.796875 0.75q0.453125 0.328125 1.015625 0.515625q0.5625 0.171875 1.25 0.171875q1.078125 0 1.84375 -0.4375q0.78125 -0.453125 1.265625 -1.21875q0.484375 -0.765625 0.71875 -1.765625q0.234375 -1.015625 0.234375 -2.125l0 -0.296875zm17.177887 5.671875q-0.765625 1.125 -1.921875 1.765625q-1.140625 0.625 -2.640625 0.625q-1.203125 0 -2.1875 -0.375q-0.96875 -0.375 -1.671875 -1.15625q-0.6875 -0.796875 -1.0625 -2.015625q-0.375 -1.234375 -0.375 -2.953125l0 -9.109375l2.625 0l0 9.140625q0 1.25 0.1875 2.078125q0.203125 0.8125 0.59375 1.296875q0.40625 0.484375 0.96875 0.6875q0.578125 0.203125 1.328125 0.203125q1.609375 0 2.59375 -0.65625q0.984375 -0.65625 1.46875 -1.75l0 -11.0l2.625 0l0 15.328125l-2.375 0l-0.15625 -2.109375zm14.177856 0.265625q0.71875 0 1.390625 -0.21875q0.671875 -0.234375 1.1875 -0.625q0.53125 -0.40625 0.84375 -0.953125q0.328125 -0.546875 0.34375 -1.1875l2.46875 0q-0.015625 1.015625 -0.53125 1.953125q-0.515625 0.921875 -1.375 1.625q-0.859375 0.703125 -1.984375 1.125q-1.125 0.40625 -2.34375 0.40625q-1.734375 0 -3.046875 -0.625q-1.296875 -0.625 -2.171875 -1.671875q-0.859375 -1.0625 -1.296875 -2.4375q-0.4375 -1.375 -0.4375 -2.90625l0 -0.59375q0 -1.515625 0.4375 -2.90625q0.4375 -1.390625 1.296875 -2.4375q0.875 -1.0625 2.171875 -1.6875q1.3125 -0.625 3.046875 -0.625q1.359375 0 2.5 0.4375q1.140625 0.4375 1.96875 1.1875q0.828125 0.734375 1.296875 1.75q0.46875 1.015625 0.46875 2.1875l-2.46875 0q-0.015625 -0.703125 -0.3125 -1.3125q-0.28125 -0.625 -0.78125 -1.09375q-0.5 -0.46875 -1.1875 -0.734375q-0.6875 -0.265625 -1.484375 -0.265625q-1.203125 0 -2.03125 0.5q-0.828125 0.484375 -1.34375 1.265625q-0.515625 0.78125 -0.734375 1.765625q-0.21875 0.96875 -0.21875 1.96875l0 0.59375q0 1.0 0.21875 1.984375q0.21875 0.984375 0.71875 1.78125q0.515625 0.78125 1.34375 1.265625q0.828125 0.484375 2.046875 0.484375zm15.662262 -5.3125l-1.921875 1.859375l0 5.296875l-2.625 0l0 -21.75l2.625 0l0 13.3125l1.71875 -1.84375l5.015625 -5.046875l3.1875 0l-6.203125 6.390625l7.15625 8.9375l-3.328125 0l-5.625 -7.15625zm19.787231 7.4375q-1.609375 0 -2.96875 -0.546875q-1.359375 -0.5625 -2.328125 -1.546875q-0.953125 -0.984375 -1.5 -2.34375q-0.53125 -1.359375 -0.53125 -2.96875l0 -0.59375q0 -1.859375 0.59375 -3.3125q0.59375 -1.46875 1.578125 -2.484375q0.984375 -1.015625 2.234375 -1.546875q1.265625 -0.546875 2.578125 -0.546875q1.65625 0 2.890625 0.578125q1.25 0.578125 2.0625 1.59375q0.828125 1.0 1.234375 2.375q0.40625 1.375 0.40625 2.984375l0 1.171875l-10.953125 0q0.046875 1.046875 0.40625 1.96875q0.359375 0.921875 0.984375 1.609375q0.640625 0.6875 1.515625 1.078125q0.875 0.390625 1.9375 0.390625q1.40625 0 2.484375 -0.5625q1.09375 -0.5625 1.8125 -1.5l1.609375 1.25q-0.390625 0.578125 -0.96875 1.109375q-0.5625 0.53125 -1.3125 0.9375q-0.75 0.40625 -1.703125 0.65625q-0.953125 0.25 -2.0625 0.25zm-0.34375 -13.734375q-0.796875 0 -1.5 0.296875q-0.703125 0.28125 -1.28125 0.84375q-0.5625 0.5625 -0.953125 1.375q-0.390625 0.8125 -0.546875 1.875l8.25 0l0 -0.203125q-0.046875 -0.765625 -0.296875 -1.515625q-0.25 -0.75 -0.734375 -1.34375q-0.46875 -0.59375 -1.203125 -0.953125q-0.734375 -0.375 -1.734375 -0.375zm17.381012 -5.578125l0 3.703125l5.828125 0l0 2.03125l-5.828125 0l0 8.328125q0 0.890625 0.21875 1.46875q0.234375 0.578125 0.625 0.9375q0.390625 0.34375 0.90625 0.484375q0.53125 0.140625 1.109375 0.140625q0.421875 0 0.875 -0.046875q0.453125 -0.0625 0.875 -0.125q0.4375 -0.078125 0.8125 -0.15625q0.375 -0.078125 0.625 -0.125l0.359375 1.859375q-0.328125 0.1875 -0.796875 0.34375q-0.453125 0.140625 -1.015625 0.25q-0.546875 0.109375 -1.171875 0.15625q-0.609375 0.0625 -1.21875 0.0625q-1.015625 0 -1.90625 -0.28125q-0.890625 -0.296875 -1.546875 -0.921875q-0.640625 -0.640625 -1.015625 -1.625q-0.375 -1.0 -0.375 -2.421875l0 -8.328125l-4.015625 0l0 -2.03125l4.015625 0l0 -3.703125l2.640625 0zm21.568481 14.96875q0 -0.46875 -0.1875 -0.84375q-0.171875 -0.375 -0.609375 -0.6875q-0.4375 -0.3125 -1.171875 -0.5625q-0.71875 -0.265625 -1.796875 -0.484375q-1.3125 -0.265625 -2.40625 -0.640625q-1.078125 -0.390625 -1.84375 -0.921875q-0.765625 -0.53125 -1.203125 -1.25q-0.421875 -0.71875 -0.421875 -1.65625q0 -0.9375 0.4375 -1.75q0.4375 -0.8125 1.234375 -1.421875q0.796875 -0.609375 1.890625 -0.96875q1.09375 -0.359375 2.421875 -0.359375q1.40625 0 2.53125 0.375q1.140625 0.359375 1.9375 1.015625q0.796875 0.65625 1.21875 1.53125q0.4375 0.859375 0.4375 1.875l-2.625 0q0 -0.5 -0.25 -0.96875q-0.25 -0.484375 -0.703125 -0.84375q-0.453125 -0.375 -1.109375 -0.59375q-0.640625 -0.234375 -1.4375 -0.234375q-0.84375 0 -1.484375 0.1875q-0.625 0.1875 -1.046875 0.5q-0.40625 0.296875 -0.625 0.71875q-0.203125 0.40625 -0.203125 0.84375q0 0.453125 0.171875 0.8125q0.171875 0.34375 0.578125 0.640625q0.421875 0.28125 1.125 0.515625q0.703125 0.21875 1.78125 0.421875q1.40625 0.296875 2.515625 0.6875q1.125 0.390625 1.890625 0.9375q0.765625 0.546875 1.171875 1.265625q0.40625 0.71875 0.40625 1.671875q0 1.015625 -0.46875 1.859375q-0.453125 0.828125 -1.28125 1.421875q-0.8125 0.59375 -1.96875 0.921875q-1.140625 0.328125 -2.5 0.328125q-1.5625 0 -2.78125 -0.40625q-1.203125 -0.421875 -2.046875 -1.109375q-0.84375 -0.6875 -1.296875 -1.59375q-0.4375 -0.90625 -0.4375 -1.890625l2.609375 0q0.0625 0.8125 0.4375 1.375q0.375 0.546875 0.9375 0.890625q0.5625 0.328125 1.234375 0.46875q0.6875 0.140625 1.34375 0.140625q1.65625 0 2.609375 -0.609375q0.96875 -0.609375 0.984375 -1.609375z" fill-rule="nonzero"></path><path fill="#ffffff" d="m371.31516 257.1067q0 -0.46875 -0.1875 -0.84375q-0.171875 -0.375 -0.609375 -0.6875q-0.4375 -0.3125 -1.171875 -0.5625q-0.71875 -0.265625 -1.796875 -0.484375q-1.3125 -0.265625 -2.40625 -0.640625q-1.078125 -0.390625 -1.84375 -0.921875q-0.765625 -0.53125 -1.203125 -1.25q-0.421875 -0.71875 -0.421875 -1.65625q0 -0.9375 0.4375 -1.75q0.4375 -0.8125 1.234375 -1.421875q0.796875 -0.609375 1.890625 -0.96875q1.09375 -0.359375 2.421875 -0.359375q1.40625 0 2.53125 0.375q1.140625 0.359375 1.9375 1.015625q0.796875 0.65625 1.21875 1.53125q0.4375 0.859375 0.4375 1.875l-2.625 0q0 -0.5 -0.25 -0.96875q-0.25 -0.484375 -0.703125 -0.84375q-0.453125 -0.375 -1.109375 -0.59375q-0.640625 -0.234375 -1.4375 -0.234375q-0.84375 0 -1.484375 0.1875q-0.625 0.1875 -1.046875 0.5q-0.40625 0.296875 -0.625 0.71875q-0.203125 0.40625 -0.203125 0.84375q0 0.453125 0.171875 0.8125q0.171875 0.34375 0.578125 0.640625q0.421875 0.28125 1.125 0.515625q0.703125 0.21875 1.78125 0.421875q1.40625 0.296875 2.515625 0.6875q1.125 0.390625 1.890625 0.9375q0.765625 0.546875 1.171875 1.265625q0.40625 0.71875 0.40625 1.671875q0 1.015625 -0.46875 1.859375q-0.453125 0.828125 -1.28125 1.421875q-0.8125 0.59375 -1.96875 0.921875q-1.140625 0.328125 -2.5 0.328125q-1.5625 0 -2.78125 -0.40625q-1.203125 -0.421875 -2.046875 -1.109375q-0.84375 -0.6875 -1.296875 -1.59375q-0.4375 -0.90625 -0.4375 -1.890625l2.609375 0q0.0625 0.8125 0.4375 1.375q0.375 0.546875 0.9375 0.890625q0.5625 0.328125 1.234375 0.46875q0.6875 0.140625 1.34375 0.140625q1.65625 0 2.609375 -0.609375q0.96875 -0.609375 0.984375 -1.609375zm7.834137 -11.265625l7.828125 0l0 13.0625l5.0 0l0 2.265625l-12.828125 0l0 -2.265625l5.203125 0l0 -10.78125l-5.203125 0l0 -2.28125zm4.875 -4.015625q0 -0.65625 0.390625 -1.09375q0.390625 -0.453125 1.171875 -0.453125q0.78125 0 1.171875 0.453125q0.40625 0.4375 0.40625 1.09375q0 0.640625 -0.40625 1.0625q-0.390625 0.421875 -1.171875 0.421875q-0.78125 0 -1.171875 -0.421875q-0.390625 -0.421875 -0.390625 -1.0625zm15.459106 17.203125l9.75 0l0 2.140625l-13.09375 0l0 -1.921875l9.140625 -11.234375l-9.015625 0l0 -2.171875l12.46875 0l0 1.859375l-9.25 11.328125zm21.224762 2.421875q-1.609375 0 -2.96875 -0.546875q-1.359375 -0.5625 -2.328125 -1.546875q-0.953125 -0.984375 -1.5 -2.34375q-0.53125 -1.359375 -0.53125 -2.96875l0 -0.59375q0 -1.859375 0.59375 -3.3125q0.59375 -1.46875 1.578125 -2.484375q0.984375 -1.015625 2.234375 -1.546875q1.265625 -0.546875 2.578125 -0.546875q1.65625 0 2.890625 0.578125q1.25 0.578125 2.0625 1.59375q0.828125 1.0 1.234375 2.375q0.40625 1.375 0.40625 2.984375l0 1.171875l-10.953125 0q0.046875 1.046875 0.40625 1.96875q0.359375 0.921875 0.984375 1.609375q0.640625 0.6875 1.515625 1.078125q0.875 0.390625 1.9375 0.390625q1.40625 0 2.484375 -0.5625q1.09375 -0.5625 1.8125 -1.5l1.609375 1.25q-0.390625 0.578125 -0.96875 1.109375q-0.5625 0.53125 -1.3125 0.9375q-0.75 0.40625 -1.703125 0.65625q-0.953125 0.25 -2.0625 0.25zm-0.34375 -13.734375q-0.796875 0 -1.5 0.296875q-0.703125 0.28125 -1.28125 0.84375q-0.5625 0.5625 -0.953125 1.375q-0.390625 0.8125 -0.546875 1.875l8.25 0l0 -0.203125q-0.046875 -0.765625 -0.296875 -1.515625q-0.25 -0.75 -0.734375 -1.34375q-0.46875 -0.59375 -1.203125 -0.953125q-0.734375 -0.375 -1.734375 -0.375z" fill-rule="nonzero"></path><path fill="#ffffff" d="m374.12766 308.08115q0 1.640625 -0.40625 3.0625q-0.390625 1.421875 -1.15625 2.46875q-0.765625 1.046875 -1.890625 1.640625q-1.125 0.59375 -2.578125 0.59375q-1.484375 0 -2.5625 -0.515625q-1.078125 -0.53125 -1.84375 -1.5l-0.125 1.734375l-2.40625 0l0 -21.75l2.609375 0l0 8.078125q0.75 -0.9375 1.8125 -1.4375q1.0625 -0.5 2.484375 -0.5q1.46875 0 2.59375 0.59375q1.140625 0.578125 1.90625 1.609375q0.765625 1.03125 1.15625 2.46875q0.40625 1.4375 0.40625 3.15625l0 0.296875zm-2.625 -0.296875q0 -1.125 -0.21875 -2.140625q-0.21875 -1.015625 -0.703125 -1.78125q-0.484375 -0.765625 -1.265625 -1.21875q-0.765625 -0.453125 -1.90625 -0.453125q-0.671875 0 -1.25 0.171875q-0.5625 0.171875 -1.015625 0.5q-0.4375 0.3125 -0.78125 0.75q-0.34375 0.421875 -0.59375 0.9375l0 6.703125q0.265625 0.5 0.609375 0.9375q0.34375 0.421875 0.796875 0.75q0.453125 0.328125 1.015625 0.515625q0.5625 0.171875 1.25 0.171875q1.078125 0 1.84375 -0.4375q0.78125 -0.453125 1.265625 -1.21875q0.484375 -0.765625 0.71875 -1.765625q0.234375 -1.015625 0.234375 -2.125l0 -0.296875zm17.177887 5.671875q-0.765625 1.125 -1.921875 1.765625q-1.140625 0.625 -2.640625 0.625q-1.203125 0 -2.1875 -0.375q-0.96875 -0.375 -1.671875 -1.15625q-0.6875 -0.796875 -1.0625 -2.015625q-0.375 -1.234375 -0.375 -2.953125l0 -9.109375l2.625 0l0 9.140625q0 1.25 0.1875 2.078125q0.203125 0.8125 0.59375 1.296875q0.40625 0.484375 0.96875 0.6875q0.578125 0.203125 1.328125 0.203125q1.609375 0 2.59375 -0.65625q0.984375 -0.65625 1.46875 -1.75l0 -11.0l2.625 0l0 15.328125l-2.375 0l-0.15625 -2.109375zm11.568481 2.109375l0 -13.296875l-4.21875 0l0 -2.03125l4.21875 0l0 -1.0625q0 -1.484375 0.421875 -2.59375q0.4375 -1.109375 1.21875 -1.859375q0.796875 -0.75 1.890625 -1.125q1.109375 -0.390625 2.46875 -0.390625q0.9375 0 1.8125 0.15625q0.890625 0.15625 1.828125 0.390625l-0.3125 2.171875q-0.578125 -0.203125 -1.359375 -0.34375q-0.765625 -0.15625 -1.640625 -0.15625q-1.84375 0.015625 -2.78125 0.9375q-0.921875 0.921875 -0.921875 2.8125l0 1.0625l5.90625 0l0 2.03125l-5.90625 0l0 13.296875l-2.625 0zm17.614075 0l0 -13.296875l-4.21875 0l0 -2.03125l4.21875 0l0 -1.0625q0 -1.484375 0.421875 -2.59375q0.4375 -1.109375 1.21875 -1.859375q0.796875 -0.75 1.890625 -1.125q1.109375 -0.390625 2.46875 -0.390625q0.9375 0 1.8125 0.15625q0.890625 0.15625 1.828125 0.390625l-0.3125 2.171875q-0.578125 -0.203125 -1.359375 -0.34375q-0.765625 -0.15625 -1.640625 -0.15625q-1.84375 0.015625 -2.78125 0.9375q-0.921875 0.921875 -0.921875 2.8125l0 1.0625l5.90625 0l0 2.03125l-5.90625 0l0 13.296875l-2.625 0zm20.47342 0.28125q-1.609375 0 -2.96875 -0.546875q-1.359375 -0.5625 -2.328125 -1.546875q-0.953125 -0.984375 -1.5 -2.34375q-0.53125 -1.359375 -0.53125 -2.96875l0 -0.59375q0 -1.859375 0.59375 -3.3125q0.59375 -1.46875 1.578125 -2.484375q0.984375 -1.015625 2.234375 -1.546875q1.265625 -0.546875 2.578125 -0.546875q1.65625 0 2.890625 0.578125q1.25 0.578125 2.0625 1.59375q0.828125 1.0 1.234375 2.375q0.40625 1.375 0.40625 2.984375l0 1.171875l-10.953125 0q0.046875 1.046875 0.40625 1.96875q0.359375 0.921875 0.984375 1.609375q0.640625 0.6875 1.515625 1.078125q0.875 0.390625 1.9375 0.390625q1.40625 0 2.484375 -0.5625q1.09375 -0.5625 1.8125 -1.5l1.609375 1.25q-0.390625 0.578125 -0.96875 1.109375q-0.5625 0.53125 -1.3125 0.9375q-0.75 0.40625 -1.703125 0.65625q-0.953125 0.25 -2.0625 0.25zm-0.34375 -13.734375q-0.796875 0 -1.5 0.296875q-0.703125 0.28125 -1.28125 0.84375q-0.5625 0.5625 -0.953125 1.375q-0.390625 0.8125 -0.546875 1.875l8.25 0l0 -0.203125q-0.046875 -0.765625 -0.296875 -1.515625q-0.25 -0.75 -0.734375 -1.34375q-0.46875 -0.59375 -1.203125 -0.953125q-0.734375 -0.375 -1.734375 -0.375zm21.209137 -2.15625q0.375 0 0.765625 0.03125q0.40625 0.015625 0.765625 0.0625q0.359375 0.046875 0.65625 0.125q0.3125 0.0625 0.5 0.15625l-0.34375 2.5625q-0.765625 -0.171875 -1.453125 -0.25q-0.6875 -0.078125 -1.4375 -0.078125q-1.84375 0 -2.984375 0.84375q-1.140625 0.828125 -1.671875 2.328125l0 9.828125l-2.640625 0l0 -15.328125l2.5 0l0.125 2.4375q0.9375 -1.25 2.234375 -1.984375q1.3125 -0.734375 2.984375 -0.734375zm16.740356 -5.796875l-3.125 0l0 23.671875l3.125 0l0 2.15625l-5.609375 0l0 -27.984375l5.609375 0l0 2.15625zm21.365387 13.515625q0 1.96875 -0.453125 3.5q-0.453125 1.515625 -1.3125 2.5625q-0.84375 1.03125 -2.078125 1.578125q-1.21875 0.53125 -2.8125 0.53125q-1.578125 0 -2.8125 -0.53125q-1.234375 -0.546875 -2.109375 -1.578125q-0.859375 -1.046875 -1.328125 -2.5625q-0.453125 -1.53125 -0.453125 -3.5l0 -4.828125q0 -1.96875 0.453125 -3.484375q0.453125 -1.53125 1.3125 -2.578125q0.859375 -1.046875 2.09375 -1.59375q1.25 -0.546875 2.8125 -0.546875q1.59375 0 2.828125 0.546875q1.234375 0.546875 2.09375 1.59375q0.859375 1.046875 1.3125 2.578125q0.453125 1.515625 0.453125 3.484375l0 4.828125zm-10.71875 -0.515625l8.03125 -6.171875q-0.234375 -2.046875 -1.203125 -3.109375q-0.96875 -1.078125 -2.796875 -1.078125q-2.0625 0 -3.046875 1.40625q-0.984375 1.390625 -0.984375 4.0625l0 4.890625zm8.078125 -3.65625l-8.0 6.125q0.234375 2.0 1.21875 3.046875q1.0 1.046875 2.765625 1.046875q2.078125 0 3.046875 -1.40625q0.96875 -1.421875 0.96875 -4.078125l0 -4.734375zm10.568481 -11.5l5.625 0l0 27.984375l-5.625 0l0 -2.15625l3.140625 0l0 -23.671875l-3.140625 0l0 -2.15625z" fill-rule="nonzero"></path><path fill="#ffffff" d="m374.12766 362.47745q0 1.640625 -0.40625 3.0625q-0.390625 1.421875 -1.15625 2.46875q-0.765625 1.046875 -1.890625 1.640625q-1.125 0.59375 -2.578125 0.59375q-1.484375 0 -2.5625 -0.515625q-1.078125 -0.53125 -1.84375 -1.5l-0.125 1.734375l-2.40625 0l0 -21.75l2.609375 0l0 8.078125q0.75 -0.9375 1.8125 -1.4375q1.0625 -0.5 2.484375 -0.5q1.46875 0 2.59375 0.59375q1.140625 0.578125 1.90625 1.609375q0.765625 1.03125 1.15625 2.46875q0.40625 1.4375 0.40625 3.15625l0 0.296875zm-2.625 -0.296875q0 -1.125 -0.21875 -2.140625q-0.21875 -1.015625 -0.703125 -1.78125q-0.484375 -0.765625 -1.265625 -1.21875q-0.765625 -0.453125 -1.90625 -0.453125q-0.671875 0 -1.25 0.171875q-0.5625 0.171875 -1.015625 0.5q-0.4375 0.3125 -0.78125 0.75q-0.34375 0.421875 -0.59375 0.9375l0 6.703125q0.265625 0.5 0.609375 0.9375q0.34375 0.421875 0.796875 0.75q0.453125 0.328125 1.015625 0.515625q0.5625 0.171875 1.25 0.171875q1.078125 0 1.84375 -0.4375q0.78125 -0.453125 1.265625 -1.21875q0.484375 -0.765625 0.71875 -1.765625q0.234375 -1.015625 0.234375 -2.125l0 -0.296875zm17.177887 5.671875q-0.765625 1.125 -1.921875 1.765625q-1.140625 0.625 -2.640625 0.625q-1.203125 0 -2.1875 -0.375q-0.96875 -0.375 -1.671875 -1.15625q-0.6875 -0.796875 -1.0625 -2.015625q-0.375 -1.234375 -0.375 -2.953125l0 -9.109375l2.625 0l0 9.140625q0 1.25 0.1875 2.078125q0.203125 0.8125 0.59375 1.296875q0.40625 0.484375 0.96875 0.6875q0.578125 0.203125 1.328125 0.203125q1.609375 0 2.59375 -0.65625q0.984375 -0.65625 1.46875 -1.75l0 -11.0l2.625 0l0 15.328125l-2.375 0l-0.15625 -2.109375zm11.568481 2.109375l0 -13.296875l-4.21875 0l0 -2.03125l4.21875 0l0 -1.0625q0 -1.484375 0.421875 -2.59375q0.4375 -1.109375 1.21875 -1.859375q0.796875 -0.75 1.890625 -1.125q1.109375 -0.390625 2.46875 -0.390625q0.9375 0 1.8125 0.15625q0.890625 0.15625 1.828125 0.390625l-0.3125 2.171875q-0.578125 -0.203125 -1.359375 -0.34375q-0.765625 -0.15625 -1.640625 -0.15625q-1.84375 0.015625 -2.78125 0.9375q-0.921875 0.921875 -0.921875 2.8125l0 1.0625l5.90625 0l0 2.03125l-5.90625 0l0 13.296875l-2.625 0zm17.614075 0l0 -13.296875l-4.21875 0l0 -2.03125l4.21875 0l0 -1.0625q0 -1.484375 0.421875 -2.59375q0.4375 -1.109375 1.21875 -1.859375q0.796875 -0.75 1.890625 -1.125q1.109375 -0.390625 2.46875 -0.390625q0.9375 0 1.8125 0.15625q0.890625 0.15625 1.828125 0.390625l-0.3125 2.171875q-0.578125 -0.203125 -1.359375 -0.34375q-0.765625 -0.15625 -1.640625 -0.15625q-1.84375 0.015625 -2.78125 0.9375q-0.921875 0.921875 -0.921875 2.8125l0 1.0625l5.90625 0l0 2.03125l-5.90625 0l0 13.296875l-2.625 0zm20.47342 0.28125q-1.609375 0 -2.96875 -0.546875q-1.359375 -0.5625 -2.328125 -1.546875q-0.953125 -0.984375 -1.5 -2.34375q-0.53125 -1.359375 -0.53125 -2.96875l0 -0.59375q0 -1.859375 0.59375 -3.3125q0.59375 -1.46875 1.578125 -2.484375q0.984375 -1.015625 2.234375 -1.546875q1.265625 -0.546875 2.578125 -0.546875q1.65625 0 2.890625 0.578125q1.25 0.578125 2.0625 1.59375q0.828125 1.0 1.234375 2.375q0.40625 1.375 0.40625 2.984375l0 1.171875l-10.953125 0q0.046875 1.046875 0.40625 1.96875q0.359375 0.921875 0.984375 1.609375q0.640625 0.6875 1.515625 1.078125q0.875 0.390625 1.9375 0.390625q1.40625 0 2.484375 -0.5625q1.09375 -0.5625 1.8125 -1.5l1.609375 1.25q-0.390625 0.578125 -0.96875 1.109375q-0.5625 0.53125 -1.3125 0.9375q-0.75 0.40625 -1.703125 0.65625q-0.953125 0.25 -2.0625 0.25zm-0.34375 -13.734375q-0.796875 0 -1.5 0.296875q-0.703125 0.28125 -1.28125 0.84375q-0.5625 0.5625 -0.953125 1.375q-0.390625 0.8125 -0.546875 1.875l8.25 0l0 -0.203125q-0.046875 -0.765625 -0.296875 -1.515625q-0.25 -0.75 -0.734375 -1.34375q-0.46875 -0.59375 -1.203125 -0.953125q-0.734375 -0.375 -1.734375 -0.375zm21.209137 -2.15625q0.375 0 0.765625 0.03125q0.40625 0.015625 0.765625 0.0625q0.359375 0.046875 0.65625 0.125q0.3125 0.0625 0.5 0.15625l-0.34375 2.5625q-0.765625 -0.171875 -1.453125 -0.25q-0.6875 -0.078125 -1.4375 -0.078125q-1.84375 0 -2.984375 0.84375q-1.140625 0.828125 -1.671875 2.328125l0 9.828125l-2.640625 0l0 -15.328125l2.5 0l0.125 2.4375q0.9375 -1.25 2.234375 -1.984375q1.3125 -0.734375 2.984375 -0.734375zm16.740356 -5.796875l-3.125 0l0 23.671875l3.125 0l0 2.15625l-5.609375 0l0 -27.984375l5.609375 0l0 2.15625zm16.912262 21.40625l-2.609375 0l0 -17.28125l-5.390625 2.0625l0 -2.390625l7.796875 -3.015625l0.203125 0l0 20.625zm12.380981 -23.5625l5.625 0l0 27.984375l-5.625 0l0 -2.15625l3.140625 0l0 -23.671875l-3.140625 0l0 -2.15625z" fill-rule="nonzero"></path><path fill="#ffffff" d="m374.12766 416.87378q0 1.640625 -0.40625 3.0625q-0.390625 1.421875 -1.15625 2.46875q-0.765625 1.046875 -1.890625 1.640625q-1.125 0.59375 -2.578125 0.59375q-1.484375 0 -2.5625 -0.515625q-1.078125 -0.53125 -1.84375 -1.5l-0.125 1.734375l-2.40625 0l0 -21.75l2.609375 0l0 8.078125q0.75 -0.9375 1.8125 -1.4375q1.0625 -0.5 2.484375 -0.5q1.46875 0 2.59375 0.59375q1.140625 0.578125 1.90625 1.609375q0.765625 1.03125 1.15625 2.46875q0.40625 1.4375 0.40625 3.15625l0 0.296875zm-2.625 -0.296875q0 -1.125 -0.21875 -2.140625q-0.21875 -1.015625 -0.703125 -1.78125q-0.484375 -0.765625 -1.265625 -1.21875q-0.765625 -0.453125 -1.90625 -0.453125q-0.671875 0 -1.25 0.171875q-0.5625 0.171875 -1.015625 0.5q-0.4375 0.3125 -0.78125 0.75q-0.34375 0.421875 -0.59375 0.9375l0 6.703125q0.265625 0.5 0.609375 0.9375q0.34375 0.421875 0.796875 0.75q0.453125 0.328125 1.015625 0.515625q0.5625 0.171875 1.25 0.171875q1.078125 0 1.84375 -0.4375q0.78125 -0.453125 1.265625 -1.21875q0.484375 -0.765625 0.71875 -1.765625q0.234375 -1.015625 0.234375 -2.125l0 -0.296875zm17.177887 5.671875q-0.765625 1.125 -1.921875 1.765625q-1.140625 0.625 -2.640625 0.625q-1.203125 0 -2.1875 -0.375q-0.96875 -0.375 -1.671875 -1.15625q-0.6875 -0.796875 -1.0625 -2.015625q-0.375 -1.234375 -0.375 -2.953125l0 -9.109375l2.625 0l0 9.140625q0 1.25 0.1875 2.078125q0.203125 0.8125 0.59375 1.296875q0.40625 0.484375 0.96875 0.6875q0.578125 0.203125 1.328125 0.203125q1.609375 0 2.59375 -0.65625q0.984375 -0.65625 1.46875 -1.75l0 -11.0l2.625 0l0 15.328125l-2.375 0l-0.15625 -2.109375zm11.568481 2.109375l0 -13.296875l-4.21875 0l0 -2.03125l4.21875 0l0 -1.0625q0 -1.484375 0.421875 -2.59375q0.4375 -1.109375 1.21875 -1.859375q0.796875 -0.75 1.890625 -1.125q1.109375 -0.390625 2.46875 -0.390625q0.9375 0 1.8125 0.15625q0.890625 0.15625 1.828125 0.390625l-0.3125 2.171875q-0.578125 -0.203125 -1.359375 -0.34375q-0.765625 -0.15625 -1.640625 -0.15625q-1.84375 0.015625 -2.78125 0.9375q-0.921875 0.921875 -0.921875 2.8125l0 1.0625l5.90625 0l0 2.03125l-5.90625 0l0 13.296875l-2.625 0zm17.614075 0l0 -13.296875l-4.21875 0l0 -2.03125l4.21875 0l0 -1.0625q0 -1.484375 0.421875 -2.59375q0.4375 -1.109375 1.21875 -1.859375q0.796875 -0.75 1.890625 -1.125q1.109375 -0.390625 2.46875 -0.390625q0.9375 0 1.8125 0.15625q0.890625 0.15625 1.828125 0.390625l-0.3125 2.171875q-0.578125 -0.203125 -1.359375 -0.34375q-0.765625 -0.15625 -1.640625 -0.15625q-1.84375 0.015625 -2.78125 0.9375q-0.921875 0.921875 -0.921875 2.8125l0 1.0625l5.90625 0l0 2.03125l-5.90625 0l0 13.296875l-2.625 0zm20.47342 0.28125q-1.609375 0 -2.96875 -0.546875q-1.359375 -0.5625 -2.328125 -1.546875q-0.953125 -0.984375 -1.5 -2.34375q-0.53125 -1.359375 -0.53125 -2.96875l0 -0.59375q0 -1.859375 0.59375 -3.3125q0.59375 -1.46875 1.578125 -2.484375q0.984375 -1.015625 2.234375 -1.546875q1.265625 -0.546875 2.578125 -0.546875q1.65625 0 2.890625 0.578125q1.25 0.578125 2.0625 1.59375q0.828125 1.0 1.234375 2.375q0.40625 1.375 0.40625 2.984375l0 1.171875l-10.953125 0q0.046875 1.046875 0.40625 1.96875q0.359375 0.921875 0.984375 1.609375q0.640625 0.6875 1.515625 1.078125q0.875 0.390625 1.9375 0.390625q1.40625 0 2.484375 -0.5625q1.09375 -0.5625 1.8125 -1.5l1.609375 1.25q-0.390625 0.578125 -0.96875 1.109375q-0.5625 0.53125 -1.3125 0.9375q-0.75 0.40625 -1.703125 0.65625q-0.953125 0.25 -2.0625 0.25zm-0.34375 -13.734375q-0.796875 0 -1.5 0.296875q-0.703125 0.28125 -1.28125 0.84375q-0.5625 0.5625 -0.953125 1.375q-0.390625 0.8125 -0.546875 1.875l8.25 0l0 -0.203125q-0.046875 -0.765625 -0.296875 -1.515625q-0.25 -0.75 -0.734375 -1.34375q-0.46875 -0.59375 -1.203125 -0.953125q-0.734375 -0.375 -1.734375 -0.375zm21.209137 -2.15625q0.375 0 0.765625 0.03125q0.40625 0.015625 0.765625 0.0625q0.359375 0.046875 0.65625 0.125q0.3125 0.0625 0.5 0.15625l-0.34375 2.5625q-0.765625 -0.171875 -1.453125 -0.25q-0.6875 -0.078125 -1.4375 -0.078125q-1.84375 0 -2.984375 0.84375q-1.140625 0.828125 -1.671875 2.328125l0 9.828125l-2.640625 0l0 -15.328125l2.5 0l0.125 2.4375q0.9375 -1.25 2.234375 -1.984375q1.3125 -0.734375 2.984375 -0.734375zm16.740356 -5.796875l-3.125 0l0 23.671875l3.125 0l0 2.15625l-5.609375 0l0 -27.984375l5.609375 0l0 2.15625zm21.068512 21.40625l-13.515625 0l0 -1.890625l6.765625 -7.5q0.90625 -1.0 1.515625 -1.78125q0.609375 -0.78125 0.96875 -1.4375q0.375 -0.65625 0.53125 -1.234375q0.15625 -0.59375 0.15625 -1.21875q0 -0.765625 -0.25 -1.4375q-0.25 -0.671875 -0.734375 -1.171875q-0.46875 -0.5 -1.140625 -0.78125q-0.671875 -0.296875 -1.515625 -0.296875q-1.03125 0 -1.796875 0.296875q-0.75 0.296875 -1.265625 0.84375q-0.5 0.546875 -0.75 1.328125q-0.234375 0.78125 -0.234375 1.734375l-2.640625 0q0 -1.296875 0.453125 -2.453125q0.453125 -1.15625 1.3125 -2.015625q0.859375 -0.859375 2.09375 -1.375q1.234375 -0.515625 2.828125 -0.515625q1.453125 0 2.625 0.4375q1.171875 0.4375 1.96875 1.203125q0.8125 0.765625 1.234375 1.8125q0.4375 1.046875 0.4375 2.265625q0 0.921875 -0.3125 1.828125q-0.3125 0.890625 -0.84375 1.78125q-0.53125 0.875 -1.234375 1.734375q-0.6875 0.859375 -1.46875 1.703125l-5.53125 6.0l10.34375 0l0 2.140625zm8.224731 -23.5625l5.625 0l0 27.984375l-5.625 0l0 -2.15625l3.140625 0l0 -23.671875l-3.140625 0l0 -2.15625z" fill-rule="nonzero"></path><path fill="#ffffff" d="m374.12766 471.2701q0 1.640625 -0.40625 3.0625q-0.390625 1.421875 -1.15625 2.46875q-0.765625 1.046875 -1.890625 1.640625q-1.125 0.59375 -2.578125 0.59375q-1.484375 0 -2.5625 -0.515625q-1.078125 -0.53125 -1.84375 -1.5l-0.125 1.734375l-2.40625 0l0 -21.75l2.609375 0l0 8.078125q0.75 -0.9375 1.8125 -1.4375q1.0625 -0.5 2.484375 -0.5q1.46875 0 2.59375 0.59375q1.140625 0.578125 1.90625 1.609375q0.765625 1.03125 1.15625 2.46875q0.40625 1.4375 0.40625 3.15625l0 0.296875zm-2.625 -0.296875q0 -1.125 -0.21875 -2.140625q-0.21875 -1.015625 -0.703125 -1.78125q-0.484375 -0.765625 -1.265625 -1.21875q-0.765625 -0.453125 -1.90625 -0.453125q-0.671875 0 -1.25 0.171875q-0.5625 0.171875 -1.015625 0.5q-0.4375 0.3125 -0.78125 0.75q-0.34375 0.421875 -0.59375 0.9375l0 6.703125q0.265625 0.5 0.609375 0.9375q0.34375 0.421875 0.796875 0.75q0.453125 0.328125 1.015625 0.515625q0.5625 0.171875 1.25 0.171875q1.078125 0 1.84375 -0.4375q0.78125 -0.453125 1.265625 -1.21875q0.484375 -0.765625 0.71875 -1.765625q0.234375 -1.015625 0.234375 -2.125l0 -0.296875zm17.177887 5.671875q-0.765625 1.125 -1.921875 1.765625q-1.140625 0.625 -2.640625 0.625q-1.203125 0 -2.1875 -0.375q-0.96875 -0.375 -1.671875 -1.15625q-0.6875 -0.796875 -1.0625 -2.015625q-0.375 -1.234375 -0.375 -2.953125l0 -9.109375l2.625 0l0 9.140625q0 1.25 0.1875 2.078125q0.203125 0.8125 0.59375 1.296875q0.40625 0.484375 0.96875 0.6875q0.578125 0.203125 1.328125 0.203125q1.609375 0 2.59375 -0.65625q0.984375 -0.65625 1.46875 -1.75l0 -11.0l2.625 0l0 15.328125l-2.375 0l-0.15625 -2.109375zm11.568481 2.109375l0 -13.296875l-4.21875 0l0 -2.03125l4.21875 0l0 -1.0625q0 -1.484375 0.421875 -2.59375q0.4375 -1.109375 1.21875 -1.859375q0.796875 -0.75 1.890625 -1.125q1.109375 -0.390625 2.46875 -0.390625q0.9375 0 1.8125 0.15625q0.890625 0.15625 1.828125 0.390625l-0.3125 2.171875q-0.578125 -0.203125 -1.359375 -0.34375q-0.765625 -0.15625 -1.640625 -0.15625q-1.84375 0.015625 -2.78125 0.9375q-0.921875 0.921875 -0.921875 2.8125l0 1.0625l5.90625 0l0 2.03125l-5.90625 0l0 13.296875l-2.625 0zm17.614075 0l0 -13.296875l-4.21875 0l0 -2.03125l4.21875 0l0 -1.0625q0 -1.484375 0.421875 -2.59375q0.4375 -1.109375 1.21875 -1.859375q0.796875 -0.75 1.890625 -1.125q1.109375 -0.390625 2.46875 -0.390625q0.9375 0 1.8125 0.15625q0.890625 0.15625 1.828125 0.390625l-0.3125 2.171875q-0.578125 -0.203125 -1.359375 -0.34375q-0.765625 -0.15625 -1.640625 -0.15625q-1.84375 0.015625 -2.78125 0.9375q-0.921875 0.921875 -0.921875 2.8125l0 1.0625l5.90625 0l0 2.03125l-5.90625 0l0 13.296875l-2.625 0zm20.47342 0.28125q-1.609375 0 -2.96875 -0.546875q-1.359375 -0.5625 -2.328125 -1.546875q-0.953125 -0.984375 -1.5 -2.34375q-0.53125 -1.359375 -0.53125 -2.96875l0 -0.59375q0 -1.859375 0.59375 -3.3125q0.59375 -1.46875 1.578125 -2.484375q0.984375 -1.015625 2.234375 -1.546875q1.265625 -0.546875 2.578125 -0.546875q1.65625 0 2.890625 0.578125q1.25 0.578125 2.0625 1.59375q0.828125 1.0 1.234375 2.375q0.40625 1.375 0.40625 2.984375l0 1.171875l-10.953125 0q0.046875 1.046875 0.40625 1.96875q0.359375 0.921875 0.984375 1.609375q0.640625 0.6875 1.515625 1.078125q0.875 0.390625 1.9375 0.390625q1.40625 0 2.484375 -0.5625q1.09375 -0.5625 1.8125 -1.5l1.609375 1.25q-0.390625 0.578125 -0.96875 1.109375q-0.5625 0.53125 -1.3125 0.9375q-0.75 0.40625 -1.703125 0.65625q-0.953125 0.25 -2.0625 0.25zm-0.34375 -13.734375q-0.796875 0 -1.5 0.296875q-0.703125 0.28125 -1.28125 0.84375q-0.5625 0.5625 -0.953125 1.375q-0.390625 0.8125 -0.546875 1.875l8.25 0l0 -0.203125q-0.046875 -0.765625 -0.296875 -1.515625q-0.25 -0.75 -0.734375 -1.34375q-0.46875 -0.59375 -1.203125 -0.953125q-0.734375 -0.375 -1.734375 -0.375zm21.209137 -2.15625q0.375 0 0.765625 0.03125q0.40625 0.015625 0.765625 0.0625q0.359375 0.046875 0.65625 0.125q0.3125 0.0625 0.5 0.15625l-0.34375 2.5625q-0.765625 -0.171875 -1.453125 -0.25q-0.6875 -0.078125 -1.4375 -0.078125q-1.84375 0 -2.984375 0.84375q-1.140625 0.828125 -1.671875 2.328125l0 9.828125l-2.640625 0l0 -15.328125l2.5 0l0.125 2.4375q0.9375 -1.25 2.234375 -1.984375q1.3125 -0.734375 2.984375 -0.734375zm16.740356 -5.796875l-3.125 0l0 23.671875l3.125 0l0 2.15625l-5.609375 0l0 -27.984375l5.609375 0l0 2.15625zm11.474762 9.84375l1.875 0q1.0 0 1.75 -0.265625q0.75 -0.28125 1.265625 -0.75q0.53125 -0.46875 0.796875 -1.109375q0.265625 -0.65625 0.265625 -1.4375q0 -1.796875 -0.921875 -2.703125q-0.921875 -0.921875 -2.6875 -0.921875q-0.828125 0 -1.515625 0.25q-0.6875 0.25 -1.1875 0.71875q-0.484375 0.46875 -0.75 1.125q-0.265625 0.640625 -0.265625 1.453125l-2.640625 0q0 -1.1875 0.453125 -2.21875q0.46875 -1.046875 1.296875 -1.8125q0.84375 -0.78125 2.0 -1.21875q1.171875 -0.453125 2.609375 -0.453125q1.390625 0 2.53125 0.375q1.15625 0.375 1.96875 1.125q0.828125 0.734375 1.28125 1.828125q0.453125 1.078125 0.453125 2.515625q0 0.59375 -0.1875 1.234375q-0.1875 0.625 -0.578125 1.234375q-0.375 0.59375 -0.984375 1.125q-0.59375 0.53125 -1.421875 0.890625q1.0 0.328125 1.671875 0.859375q0.671875 0.515625 1.078125 1.171875q0.40625 0.640625 0.5625 1.375q0.171875 0.71875 0.171875 1.421875q0 1.4375 -0.5 2.5625q-0.5 1.125 -1.375 1.890625q-0.875 0.765625 -2.078125 1.171875q-1.1875 0.40625 -2.578125 0.40625q-1.359375 0 -2.5625 -0.375q-1.1875 -0.390625 -2.078125 -1.125q-0.875 -0.734375 -1.390625 -1.796875q-0.515625 -1.0625 -0.515625 -2.421875l2.625 0q0 0.8125 0.265625 1.484375q0.28125 0.65625 0.78125 1.125q0.515625 0.46875 1.25 0.71875q0.734375 0.25 1.625 0.25q0.890625 0 1.609375 -0.234375q0.71875 -0.234375 1.234375 -0.703125q0.515625 -0.484375 0.78125 -1.203125q0.28125 -0.71875 0.28125 -1.6875q0 -0.96875 -0.328125 -1.671875q-0.3125 -0.703125 -0.890625 -1.15625q-0.5625 -0.46875 -1.375 -0.6875q-0.8125 -0.234375 -1.796875 -0.234375l-1.875 0l0 -2.125zm17.818481 -12.0l5.625 0l0 27.984375l-5.625 0l0 -2.15625l3.140625 0l0 -23.671875l-3.140625 0l0 -2.15625z" fill-rule="nonzero"></path><path fill="#ffffff" d="m365.70578 531.4477q0 -0.421875 0.125 -0.78125q0.140625 -0.375 0.390625 -0.640625q0.25 -0.28125 0.625 -0.4375q0.390625 -0.15625 0.90625 -0.15625q0.515625 0 0.890625 0.15625q0.390625 0.15625 0.65625 0.4375q0.265625 0.265625 0.390625 0.640625q0.140625 0.359375 0.140625 0.78125q0 0.421875 -0.140625 0.78125q-0.125 0.359375 -0.390625 0.625q-0.265625 0.265625 -0.65625 0.40625q-0.375 0.15625 -0.890625 0.15625q-0.515625 0 -0.90625 -0.15625q-0.375 -0.140625 -0.625 -0.40625q-0.25 -0.265625 -0.390625 -0.625q-0.125 -0.359375 -0.125 -0.78125zm17.599762 0q0 -0.421875 0.125 -0.78125q0.140625 -0.375 0.390625 -0.640625q0.25 -0.28125 0.625 -0.4375q0.390625 -0.15625 0.90625 -0.15625q0.515625 0 0.890625 0.15625q0.390625 0.15625 0.65625 0.4375q0.265625 0.265625 0.390625 0.640625q0.140625 0.359375 0.140625 0.78125q0 0.421875 -0.140625 0.78125q-0.125 0.359375 -0.390625 0.625q-0.265625 0.265625 -0.65625 0.40625q-0.375 0.15625 -0.890625 0.15625q-0.515625 0 -0.90625 -0.15625q-0.375 -0.140625 -0.625 -0.40625q-0.25 -0.265625 -0.390625 -0.625q-0.125 -0.359375 -0.125 -0.78125zm17.599731 0q0 -0.421875 0.125 -0.78125q0.140625 -0.375 0.390625 -0.640625q0.25 -0.28125 0.625 -0.4375q0.390625 -0.15625 0.90625 -0.15625q0.515625 0 0.890625 0.15625q0.390625 0.15625 0.65625 0.4375q0.265625 0.265625 0.390625 0.640625q0.140625 0.359375 0.140625 0.78125q0 0.421875 -0.140625 0.78125q-0.125 0.359375 -0.390625 0.625q-0.265625 0.265625 -0.65625 0.40625q-0.375 0.15625 -0.890625 0.15625q-0.515625 0 -0.90625 -0.15625q-0.375 -0.140625 -0.625 -0.40625q-0.25 -0.265625 -0.390625 -0.625q-0.125 -0.359375 -0.125 -0.78125z" fill-rule="nonzero"></path><path fill="#000000" fill-opacity="0.0" d="m538.53546 196.91733c10.419067 4.4912415 51.73578 13.29483 62.514404 26.947495c10.7786255 13.652679 12.576538 42.21434 2.1574707 54.96852c-10.419067 12.75415 -53.89325 17.963684 -64.671875 21.556427" fill-rule="nonzero"></path><path stroke="#ff0000" stroke-width="4.0" stroke-linejoin="round" stroke-linecap="butt" d="m538.53546 196.91733c10.419067 4.4912415 51.735718 13.294846 62.514404 26.947495c10.778687 13.652664 12.576599 42.21434 2.1574707 54.96852c-5.2095337 6.377075 -18.682861 10.868011 -32.20111 14.213745c-3.3795166 0.8364258 -6.761902 1.6012878 -10.018677 2.3061523c-1.628418 0.3524475 -3.2253418 0.6898804 -4.7749023 1.0137634l-4.329468 0.89907837" fill-rule="evenodd"></path><path fill="#ff0000" stroke="#ff0000" stroke-width="4.0" stroke-linecap="butt" d="m551.8831 297.26608l3.3549805 -5.4050293l-11.008911 7.196228l13.05896 1.5637512z" fill-rule="evenodd"></path><path fill="#000000" fill-opacity="0.0" d="m586.15485 305.76904l0 238.83466" fill-rule="nonzero"></path><path stroke="#00ffff" stroke-width="8.0" stroke-linejoin="round" stroke-linecap="butt" d="m586.15485 305.76904l0 211.41791" fill-rule="evenodd"></path><path fill="#00ffff" stroke="#00ffff" stroke-width="8.0" stroke-linecap="butt" d="m586.15485 517.187l-8.996643 -8.996704l8.996643 24.71814l8.996704 -24.71814z" fill-rule="evenodd"></path></g></svg>

